<!--?xml version="1.0" encoding="utf-8"?-->
<!-- Generator: Adobe Illustrator 21.1.0, SVG Export Plug-In . SVG Version: 6.00 Build 0)  -->
<svg version="1.1" id="Layer_1" xmlns="http://www.w3.org/2000/svg" xmlns:xlink="http://www.w3.org/1999/xlink" x="0px" y="0px" viewBox="0 0 160 160" xml:space="preserve">
<style type="text/css">
	.st0{fill:none;stroke:#C0392B;stroke-miterlimit:10;}
</style>
<title>logo-animated</title>
<path class="st0 NTkKuHaL_0" d="M65.3,73V48.5l0,0c0.1-5,1.5-8.8,4.4-11.4c3-2.7,6.9-4.2,10.9-4.2c8.8,0,13,5.1,13,15.6l0,0v19.3l12.3-2.2V45.1
	c0-7.5-2-13.2-6-17.2S90.8,22,84.3,22c-8,0-15.3,4.4-19.1,11.3V22.9H53v52.3L65.3,73z"></path>
<path class="st0 NTkKuHaL_1" d="M97.7,93.8c4.8-4,8.3-8.4,8.3-13.4c0,0,0.1-4.2,0.1-5v-3.9l-12.3,2.2v3.6c0,0.6,0,1.1,0,1.7
	c0,3.3-1.5,6.3-4.1,8.2c-5.9,4.6-14.1,4.6-20,0c-2.6-2-4.2-5.1-4.2-8.3L53,81.2c0.3,5.8,4,8.8,8.5,12.6
	c-7.6,4.8-11.4,11.6-11.4,20.3c-0.1,6.6,2.9,12.9,8.1,17c5.4,4.6,12.5,6.9,21.3,6.9s15.9-2.3,21.3-6.9c5.2-4.1,8.2-10.4,8.1-17
	C109,105.4,105.2,98.6,97.7,93.8z M90.7,123.2c-6.7,4.4-15.4,4.4-22.1,0c-3.3-2-5.3-5.7-5.2-9.5c-0.1-3.9,1.8-7.5,5-9.6
	c6.8-4.5,15.7-4.5,22.6,0c3.2,2.1,5.1,5.7,5,9.6C96,117.5,94,121.2,90.7,123.2z"></path>
<style>.NTkKuHaL_0{stroke-dasharray:272 274;stroke-dashoffset:273;animation:NTkKuHaL_draw_0 4400ms ease 0ms infinite,NTkKuHaL_fade 4400ms linear 0ms infinite;}.NTkKuHaL_1{stroke-dasharray:339 341;stroke-dashoffset:340;animation:NTkKuHaL_draw_1 4400ms ease 0ms infinite,NTkKuHaL_fade 4400ms linear 0ms infinite;}@keyframes NTkKuHaL_draw{100%{stroke-dashoffset:0;}}@keyframes NTkKuHaL_fade{0%{stroke-opacity:1;}90.9090909090909%{stroke-opacity:1;}100%{stroke-opacity:0;}}@keyframes NTkKuHaL_draw_0{0%{stroke-dashoffset: 273}68.18181818181817%{ stroke-dashoffset: 0;}100%{ stroke-dashoffset: 0;}}@keyframes NTkKuHaL_draw_1{0%{stroke-dashoffset: 340}68.18181818181817%{ stroke-dashoffset: 0;}100%{ stroke-dashoffset: 0;}}</style></svg>
